<svg width="20" height="20" viewBox="0 0 20 20" fill="none" xmlns="http://www.w3.org/2000/svg">
<path d="M16.4034 2.35434C16.5084 2.44751 16.6111 2.5427 16.7132 2.63902C16.8123 2.73235 16.9137 2.82178 17.0167 2.91072C17.1844 3.05941 17.3282 3.21978 17.4721 3.39121C17.5051 3.42876 17.5381 3.4663 17.5721 3.50498C18.7542 4.8558 19.5135 6.51155 19.8329 8.27238C19.8396 8.30702 19.8463 8.34166 19.8531 8.37735C20.0577 9.47287 20.0463 10.7185 19.8329 11.8112C19.8264 11.8466 19.8198 11.8819 19.8131 11.9183C19.5682 13.2101 19.0735 14.4683 18.3269 15.5535C18.3105 15.5777 18.2941 15.6019 18.2772 15.6268C17.9069 16.1713 17.4747 16.6607 17.0243 17.1398C16.9869 17.1799 16.9869 17.1799 16.9486 17.2207C16.7462 17.4303 16.5188 17.6088 16.2917 17.7907C16.2594 17.8175 16.2271 17.8444 16.1939 17.872C15.7104 18.2708 15.1768 18.5979 14.6228 18.8889C14.5923 18.9051 14.5618 18.9212 14.5304 18.9378C13.1247 19.6719 11.5769 20.0066 9.99772 19.9999C9.96014 19.9998 9.92256 19.9997 9.88384 19.9996C9.31218 19.9975 8.7533 19.9797 8.19145 19.8652C8.13126 19.853 8.13126 19.853 8.06984 19.8407C5.95411 19.4008 3.83438 18.3089 2.45212 16.611C2.4177 16.5702 2.38328 16.5294 2.34781 16.4873C2.06096 16.1467 2.06096 16.1467 1.96366 16.0009C1.9538 16.0408 1.94394 16.0807 1.93377 16.1218C1.89754 16.268 1.86073 16.414 1.82382 16.56C1.80195 16.6473 1.78069 16.7347 1.75951 16.8222C1.74617 16.8756 1.73282 16.9289 1.71944 16.9822C1.70768 17.0301 1.69593 17.0781 1.68382 17.1274C1.59026 17.4021 1.43214 17.577 1.18265 17.7195C0.874397 17.8016 0.622228 17.7639 0.343752 17.6103C0.172219 17.4884 0.0765824 17.3399 0.00984746 17.1398C-0.0317996 16.7168 0.0666442 16.3139 0.155493 15.9037C0.170648 15.8322 0.185772 15.7607 0.200866 15.6892C0.232441 15.5402 0.264365 15.3913 0.296548 15.2425C0.337612 15.0524 0.377826 14.8622 0.417785 14.6719C0.448815 14.5246 0.480278 14.3773 0.511873 14.2301C0.526865 14.16 0.541729 14.0899 0.556458 14.0197C0.577143 13.9216 0.598406 13.8235 0.619819 13.7255C0.628647 13.6828 0.628646 13.6828 0.637652 13.6392C0.717805 13.2796 0.867738 13.014 1.16993 12.7951C1.62331 12.6414 2.13003 12.7919 2.58234 12.8909C2.6527 12.906 2.72306 12.921 2.79343 12.936C2.94003 12.9673 3.08654 12.999 3.23299 13.0311C3.41963 13.0718 3.60647 13.1116 3.79338 13.1511C3.93843 13.1819 4.08336 13.2132 4.22826 13.2446C4.29708 13.2595 4.36593 13.2742 4.43482 13.2887C5.28511 13.4689 5.28512 13.4689 5.556 13.7302C5.71531 13.9901 5.78479 14.1937 5.7212 14.501C5.63797 14.7806 5.47299 14.9669 5.22003 15.106C4.84194 15.2153 4.46664 15.1097 4.0938 15.0273C4.00074 15.0067 3.90757 14.9867 3.81437 14.9668C3.75508 14.9539 3.6958 14.9411 3.63652 14.9282C3.60871 14.9222 3.5809 14.9162 3.55224 14.91C3.3572 14.8668 3.3572 14.8668 3.26621 14.8213C3.51647 15.1696 3.78414 15.4877 4.0803 15.7975C4.11294 15.8323 4.14557 15.867 4.1792 15.9029C5.64287 17.4207 7.75806 18.2087 9.83824 18.2839C12.0709 18.3225 14.1821 17.4322 15.7817 15.8975C17.3548 14.3652 18.2118 12.2491 18.2457 10.0637C18.2405 7.72476 17.2693 5.64622 15.6404 4.00136C15.536 3.90004 15.4288 3.80683 15.3147 3.71662C15.2761 3.68553 15.2374 3.65444 15.1976 3.6224C14.8838 3.37358 14.5558 3.1548 14.2157 2.94377C14.1673 2.912 14.1673 2.912 14.1179 2.87958C13.1614 2.26808 11.9232 1.89641 10.7965 1.80483C10.7633 1.80211 10.7301 1.79938 10.6959 1.79657C8.52701 1.63252 6.36547 2.2763 4.69087 3.67595C4.52359 3.8205 4.36236 3.97081 4.20241 4.12339C4.16768 4.15595 4.13294 4.18851 4.09715 4.22206C3.77582 4.53152 3.50846 4.88011 3.24506 5.23881C3.21342 5.28181 3.18178 5.32481 3.14918 5.3691C3.12158 5.40738 3.09398 5.44566 3.06555 5.4851C2.90165 5.68473 2.72712 5.81216 2.46786 5.84546C2.17734 5.84966 1.95629 5.81373 1.73852 5.6111C1.53663 5.38413 1.48937 5.16132 1.49588 4.86526C1.56422 4.41592 1.96529 4.01782 2.2486 3.67595C2.26862 3.65169 2.28864 3.62743 2.30927 3.60244C2.67904 3.15679 3.06643 2.74287 3.52125 2.38145C3.59462 2.32311 3.66717 2.26369 3.73876 2.20318C4.25508 1.76736 4.82612 1.42581 5.42355 1.11333C5.45332 1.09766 5.48309 1.08198 5.51376 1.06583C6.3513 0.630732 7.26517 0.349817 8.19145 0.177777C8.22487 0.171176 8.25829 0.164576 8.29272 0.157776C11.1127 -0.380504 14.2395 0.484647 16.4034 2.35434Z" fill="#41B06E"/>
<path d="M11.0128 5.36658C11.2246 5.48999 11.37 5.64841 11.4538 5.87875C11.4917 6.04938 11.4777 6.17747 11.4427 6.34484C11.2346 7.48425 11.0196 8.94199 11.6932 9.96171C12.1674 10.6309 12.7757 11.2038 13.3762 11.7579C13.3982 11.7782 13.4202 11.7985 13.4429 11.8194C13.8404 12.1854 14.2423 12.5466 14.6559 12.8945C14.6938 12.9266 14.7317 12.9586 14.7708 12.9917C14.8413 13.051 14.9122 13.1098 14.9835 13.168C15.2038 13.3528 15.3208 13.4964 15.3745 13.7849C15.3783 14.0567 15.3198 14.2779 15.1519 14.4959C14.9163 14.6786 14.6847 14.7412 14.3905 14.7533C14.0418 14.7034 13.8422 14.4712 13.6044 14.2315C13.5641 14.1914 13.5238 14.1514 13.4834 14.1114C13.3743 14.0031 13.2657 13.8943 13.1572 13.7853C13.0434 13.6712 12.9291 13.5574 12.8149 13.4436C12.6233 13.2524 12.432 13.0608 12.241 12.8691C12.0203 12.6477 11.7991 12.427 11.5776 12.2065C11.3871 12.0169 11.1969 11.8269 11.007 11.6367C10.8937 11.5232 10.7803 11.4099 10.6666 11.2968C10.5597 11.1905 10.4533 11.0838 10.3471 10.9767C10.2897 10.919 10.2318 10.8617 10.174 10.8044C9.85279 10.4791 9.76021 10.2617 9.76315 9.805C9.76293 9.76375 9.76272 9.72251 9.7625 9.68002C9.76196 9.54427 9.76232 9.40854 9.76273 9.27279C9.76265 9.17812 9.76253 9.08345 9.76238 8.98878C9.7622 8.7906 9.76246 8.59243 9.76303 8.39425C9.76372 8.14053 9.76332 7.88682 9.76259 7.6331C9.76215 7.43768 9.76229 7.24227 9.76261 7.04685C9.76269 6.95331 9.76259 6.85977 9.7623 6.76622C9.76199 6.63538 9.76247 6.50456 9.76315 6.37372C9.7629 6.33525 9.76265 6.29679 9.7624 6.25715C9.76541 5.94286 9.83425 5.6952 10.0639 5.46573C10.3449 5.2621 10.6937 5.22572 11.0128 5.36658Z" fill="#41B06E"/>
</svg>
