<svg width="15" height="17" viewBox="0 0 15 17" fill="none" xmlns="http://www.w3.org/2000/svg">
<path fill-rule="evenodd" clip-rule="evenodd" d="M0 6.93146C0 3.09824 3.20323 0 7.07787 0C10.9634 0 14.1667 3.09824 14.1667 6.93146C14.1667 8.86308 13.4642 10.6564 12.3079 12.1763C11.0323 13.8529 9.46013 15.3137 7.69045 16.4604C7.28543 16.7253 6.91989 16.7453 6.47537 16.4604C4.69561 15.3137 3.12341 13.8529 1.85875 12.1763C0.701653 10.6564 0 8.86308 0 6.93146ZM4.74519 7.14729C4.74519 8.43142 5.79305 9.44139 7.07787 9.44139C8.36353 9.44139 9.42148 8.43142 9.42148 7.14729C9.42148 5.87316 8.36353 4.81403 7.07787 4.81403C5.79305 4.81403 4.74519 5.87316 4.74519 7.14729Z" fill="#F54336"/>
</svg>
